<svg width="21" height="30" viewBox="0 0 21 30" fill="none" xmlns="http://www.w3.org/2000/svg">
<path d="M0 9.10716V20.8928C0.00570913 25.9202 4.16869 29.9943 9.30569 30H11.4952C16.6322 29.9944 20.7952 25.9202 20.8009 20.8928V9.10716C20.7952 4.07975 16.6322 0.00565011 11.4952 0H9.30569C4.16869 0.00565011 0.00570913 4.07975 0 9.10716ZM9.53226 1.07145H9.85306V2.99255L1.09481 11.5639V9.32896L9.53226 1.07145ZM8.21089 11.7857H6.24791L8.21089 9.86465V11.7857ZM8.21089 8.03571V8.34967L4.6999 11.7857H2.41618L9.85306 4.50753V5.96896C8.88925 6.21248 8.21461 7.06157 8.21089 8.03571ZM9.30569 8.03571C9.30569 7.44395 9.79584 6.96426 10.4005 6.96426C11.0052 6.96426 11.4953 7.44395 11.4953 8.03571V12.3214C11.4953 12.9132 11.0052 13.3929 10.4005 13.3929C9.79584 13.3929 9.30569 12.9132 9.30569 12.3214V8.03571ZM11.4952 28.9286H9.30569C4.77309 28.9235 1.09994 25.3287 1.09481 20.8928V12.8571H8.28863C8.53445 13.8023 9.40397 14.4638 10.4005 14.4638C11.397 14.4638 12.2666 13.8023 12.5124 12.8571H19.7061V20.8928C19.701 25.3288 16.0278 28.9235 11.4952 28.9286ZM19.7061 9.10716V11.7857H12.59V8.03577C12.5863 7.06163 11.9117 6.21254 10.9479 5.96896V1.07145H11.4952C16.0278 1.07647 19.701 4.67126 19.7061 9.10716ZM7.84685 1.20592L1.23221 7.6795C1.84578 4.3848 4.48032 1.80646 7.84685 1.20592Z" fill="#3A3A3A"/>
</svg>
